<svg xmlns="http://www.w3.org/2000/svg" width="17" height="20" viewBox="0 0 17 20" fill="#243238"><path d="M14.5 17.3C13.8 17.2 13.9 16.6 14.5 16.5 15.6 16.3 16 15.7 16 15.2 16 14.7 15.7 14.3 15.1 14.2 14.4 14 14.6 13.6 15.2 13.5 16.1 13.4 16.6 12.9 16.6 12.3 16.6 11.9 16.2 11.4 15.5 11.3 14.8 11.2 15 10.7 15.5 10.6 16 10.4 16.7 10.1 16.7 9.3 16.7 8.7 16.2 8 14.8 8.1 13.8 8.1 11.7 7.9 10.6 7.3 11.4 4.3 11.2 0 9.2 0 7.9 0 7.6 1.5 7.2 2.9 5.8 7.9 2.9 8.8 0 9.2L0 17.5C5.6 17.5 7.1 20 11.3 20 13.9 20 15.3 18.6 15.3 17.8 15.3 17.5 15.1 17.3 14.5 17.3L14.5 17.3Z"/></svg>