<svg width="20px" height="20px" viewBox="0 0 20 20" version="1.1" fill="#243238" xmlns="http://www.w3.org/2000/svg" xmlns:xlink="http://www.w3.org/1999/xlink" transform="translate(-787.000000, -2303.000000)" stroke="none" stroke-width="1" fill-rule="evenodd">
	<path d="M793,2319 C791.9,2319 791.01,2319.9 791.01,2321 C791.01,2322.1 791.9,2323 793,2323 C794.1,2323 795,2322.1 795,2321 C795,2319.9 794.1,2319 793,2319 L793,2319 Z M787,2303 L787,2305 L789,2305 L792.6,2312.59 L791.25,2315.04 C791.09,2315.32 791,2315.65 791,2316 C791,2317.1 791.9,2318 793,2318 L805,2318 L805,2316 L793.42,2316 C793.28,2316 793.17,2315.89 793.17,2315.75 L793.2,2315.63 L794.1,2314 L801.55,2314 C802.3,2314 802.96,2313.59 803.3,2312.97 L806.88,2306.48 C806.96,2306.34 807,2306.17 807,2306 C807,2305.45 806.55,2305 806,2305 L791.21,2305 L790.27,2303 L787,2303 L787,2303 Z M803,2319 C801.9,2319 801.01,2319.9 801.01,2321 C801.01,2322.1 801.9,2323 803,2323 C804.1,2323 805,2322.1 805,2321 C805,2319.9 804.1,2319 803,2319 L803,2319 Z" id="icn-cart,-checkout"></path>
</svg>

