<svg width="20px" height="20px" viewBox="0 0 20 20" version="1.1" xmlns="http://www.w3.org/2000/svg" xmlns:xlink="http://www.w3.org/1999/xlink" stroke="none" stroke-width="1" fill-rule="evenodd" transform="translate(-40.000000, -3531.000000)" fill="#243238">
	<path d="M58.3333333,3536 L58.3333333,3549.33333 L45,3549.33333 L45,3536 L58.3333333,3536 L58.3333333,3536 Z M60,3534.33333 L43.3333333,3534.33333 L43.3333333,3551 L60,3551 L60,3534.33333 L60,3534.33333 Z M40,3531 L40,3547.66667 L41.6666667,3547.66667 L41.6666667,3532.66667 L56.6666667,3532.66667 L56.6666667,3531 L40,3531 L40,3531 Z M51.6666667,3540.16667 L46.6666667,3540.16667 L46.6666667,3539.33333 L51.6666667,3539.33333 L51.6666667,3540.16667 L51.6666667,3540.16667 Z M51.6666667,3541 L46.6666667,3541 L46.6666667,3541.83333 L51.6666667,3541.83333 L51.6666667,3541 L51.6666667,3541 Z M51.6666667,3542.66667 L46.6666667,3542.66667 L46.6666667,3543.5 L51.6666667,3543.5 L51.6666667,3542.66667 L51.6666667,3542.66667 Z M51.6666667,3544.33333 L46.6666667,3544.33333 L46.6666667,3545.16667 L51.6666667,3545.16667 L51.6666667,3544.33333 L51.6666667,3544.33333 Z M52.5,3541 L54.5833333,3543.5 L56.6666667,3541 L52.5,3541 L52.5,3541 Z" id="icn-Info,-template,-details,-information"></path>
</svg>