<svg xmlns="http://www.w3.org/2000/svg" width="20" height="20" viewBox="0 0 20 20" fill="#243238"><path d="M18.3 5L18.3 18.3 5 18.3 5 5 18.3 5 18.3 5ZM20 3.3L3.3 3.3 3.3 20 20 20 20 3.3 20 3.3ZM0 0L0 16.7 1.7 16.7 1.7 1.7 16.7 1.7 16.7 0 0 0 0 0ZM11.7 9.2L6.7 9.2 6.7 8.3 11.7 8.3 11.7 9.2 11.7 9.2ZM11.7 10L6.7 10 6.7 10.8 11.7 10.8 11.7 10 11.7 10ZM11.7 11.7L6.7 11.7 6.7 12.5 11.7 12.5 11.7 11.7 11.7 11.7ZM11.7 13.3L6.7 13.3 6.7 14.2 11.7 14.2 11.7 13.3 11.7 13.3ZM12.5 10L14.6 12.5 16.7 10 12.5 10 12.5 10Z"/></svg>