<svg width="20px" height="20px" viewBox="0 0 20 20" version="1.1" xmlns="http://www.w3.org/2000/svg" xmlns:xlink="http://www.w3.org/1999/xlink" stroke="none" stroke-width="1" fill-rule="evenodd" transform="translate(-40.000000, -2131.000000)" fill="#243238">
	<path d="M54.2938822,2143.57862 L53.3905089,2143.57862 L53.0703259,2143.26987 C54.1909663,2141.96627 54.8656375,2140.27387 54.8656375,2138.43282 C54.8656375,2134.32762 51.5380217,2131 47.4328188,2131 C43.3276158,2131 40,2134.32762 40,2138.43282 C40,2142.53802 43.3276158,2145.86564 47.4328188,2145.86564 C49.2738708,2145.86564 50.9662664,2145.19097 52.2698685,2144.07033 L52.5786164,2144.39051 L52.5786164,2145.29388 L58.2961692,2151 L60,2149.29617 L54.2938822,2143.57862 L54.2938822,2143.57862 Z M47.4328188,2143.57862 C44.5854774,2143.57862 42.2870212,2141.28016 42.2870212,2138.43282 C42.2870212,2135.58548 44.5854774,2133.28702 47.4328188,2133.28702 C50.2801601,2133.28702 52.5786164,2135.58548 52.5786164,2138.43282 C52.5786164,2141.28016 50.2801601,2143.57862 47.4328188,2143.57862 L47.4328188,2143.57862 Z" id="icn-search,-find,-magnifier"></path>
</svg>