<svg width="17px" height="20px" viewBox="0 0 17 20" version="1.1" xmlns="http://www.w3.org/2000/svg" xmlns:xlink="http://www.w3.org/1999/xlink" stroke="none" stroke-width="1" fill-rule="evenodd" transform="translate(-288.000000, -5350.000000)" fill="#243238">
	<path d="M302.496667,5367.25667 C301.821667,5367.205 301.885833,5366.58 302.5225,5366.4625 C303.58,5366.2675 304.045,5365.70083 304.045,5365.17667 C304.045,5364.73583 303.715,5364.325 303.13,5364.1925 C302.4325,5364.035 302.576667,5363.56167 303.155833,5363.51583 C304.099167,5363.44083 304.5625,5362.87917 304.5625,5362.34083 C304.5625,5361.87 304.208333,5361.4175 303.511667,5361.32417 C302.7975,5361.22833 303.03,5360.7125 303.5375,5360.55583 C303.971667,5360.4225 304.665833,5360.13917 304.665833,5359.2975 C304.665833,5358.7375 304.249167,5357.99583 302.773333,5358.05583 C301.75,5358.0975 299.7175,5357.89083 298.624167,5357.31833 C299.38,5354.27083 299.198333,5350 297.218333,5350 C295.89,5350 295.638333,5351.50583 295.239167,5352.89083 C293.8075,5357.865 290.9425,5358.77583 288,5359.22667 L288,5367.5 C293.573333,5367.5 295.083333,5370 299.254167,5370 C301.92,5370 303.2975,5368.55417 303.2975,5367.77833 C303.296667,5367.5 303.07,5367.30167 302.496667,5367.25667 L302.496667,5367.25667 Z" id="icn-Thumb-up,-like"></path>
</svg>