<svg width="20px" height="19px" viewBox="0 0 20 19" version="1.1" xmlns="http://www.w3.org/2000/svg" xmlns:xlink="http://www.w3.org/1999/xlink" stroke="none" stroke-width="1" fill-rule="evenodd" transform="translate(-40.000000, -2304.000000)" fill="#243238">
	<path d="M58.9473684,2319.78947 L58.9473684,2320.84211 C58.9473684,2322 58,2322.94737 56.8421053,2322.94737 L42.1052632,2322.94737 C40.9368421,2322.94737 40,2322 40,2320.84211 L40,2306.10526 C40,2304.94737 40.9368421,2304 42.1052632,2304 L56.8421053,2304 C58,2304 58.9473684,2304.94737 58.9473684,2306.10526 L58.9473684,2307.15789 L49.4736842,2307.15789 C48.3052632,2307.15789 47.3684211,2308.10526 47.3684211,2309.26316 L47.3684211,2317.68421 C47.3684211,2318.84211 48.3052632,2319.78947 49.4736842,2319.78947 L58.9473684,2319.78947 L58.9473684,2319.78947 Z M49.4736842,2317.68421 L60,2317.68421 L60,2309.26316 L49.4736842,2309.26316 L49.4736842,2317.68421 L49.4736842,2317.68421 Z M53.6842105,2315.05263 C52.8105263,2315.05263 52.1052632,2314.34737 52.1052632,2313.47368 C52.1052632,2312.6 52.8105263,2311.89474 53.6842105,2311.89474 C54.5578947,2311.89474 55.2631579,2312.6 55.2631579,2313.47368 C55.2631579,2314.34737 54.5578947,2315.05263 53.6842105,2315.05263 L53.6842105,2315.05263 Z" id="icn-wallet,-cash,-pay,-checkout"></path>
</svg>