<svg xmlns="http://www.w3.org/2000/svg" width="20" height="19" viewBox="0 0 20 19" fill="#243238"><path d="M18.9 15.8L18.9 16.8C18.9 18 18 18.9 16.8 18.9L2.1 18.9C0.9 18.9 0 18 0 16.8L0 2.1C0 0.9 0.9 0 2.1 0L16.8 0C18 0 18.9 0.9 18.9 2.1L18.9 3.2 9.5 3.2C8.3 3.2 7.4 4.1 7.4 5.3L7.4 13.7C7.4 14.8 8.3 15.8 9.5 15.8L18.9 15.8 18.9 15.8ZM9.5 13.7L20 13.7 20 5.3 9.5 5.3 9.5 13.7 9.5 13.7ZM13.7 11.1C12.8 11.1 12.1 10.3 12.1 9.5 12.1 8.6 12.8 7.9 13.7 7.9 14.6 7.9 15.3 8.6 15.3 9.5 15.3 10.3 14.6 11.1 13.7 11.1L13.7 11.1Z"/></svg>