<?xml version="1.0" encoding="UTF-8"?>
<svg width="54px" height="33px" viewBox="0 0 54 33" version="1.1" xmlns="http://www.w3.org/2000/svg" xmlns:xlink="http://www.w3.org/1999/xlink">
    <!-- Generator: Sketch 41.2 (35397) - http://www.bohemiancoding.com/sketch -->
    <title>Arrow</title>
    <desc>Created with Sketch.</desc>
    <defs></defs>
    <g id="Master-File" stroke="none" stroke-width="1" fill="none" fill-rule="evenodd">
        <g id="Membership-Popup" transform="translate(-547.000000, -666.000000)" fill="#FFECB3">
            <path d="M596.775759,682.351309 C594.416571,683.95576 580.26988,694.276789 555.604205,688.803332 C530.93853,683.329875 553.866946,689.584069 553.866946,689.584069 C581.704962,695.43765 589.518483,688.588003 596.605422,685.083021 C597.692706,684.545284 598.850554,683.556895 598.797885,685.063076 C598.731404,685.746892 597.403592,690.283331 598.57363,690.229273 C599.810804,690.172113 601.154287,685.923621 602.678824,683.067974 C604.079262,680.444781 605.679279,678.692811 605.379533,678.131903 C605.070094,677.552858 602.236268,679.056864 599.29014,679.24068 C596.275679,679.428759 593.198595,678.834892 592.732696,679.24068 C590.96339,680.781707 596.605422,680.717951 596.775759,682.351309 Z" id="Arrow" transform="translate(574.794263, 684.932781) scale(-1, -1) rotate(-204.000000) translate(-574.794263, -684.932781) "></path>
        </g>
    </g>
</svg>