<?xml version="1.0" encoding="UTF-8"?>
<svg width="40px" height="40px" viewBox="0 0 40 40" version="1.1" xmlns="http://www.w3.org/2000/svg" xmlns:xlink="http://www.w3.org/1999/xlink">
    <!-- Generator: Sketch 41.2 (35397) - http://www.bohemiancoding.com/sketch -->
    <title>ic-question</title>
    <desc>Created with Sketch.</desc>
    <defs></defs>
    <g id="Master-File" stroke="none" stroke-width="1" fill="none" fill-rule="evenodd">
        <g id="Membership-Popup" transform="translate(-108.000000, -862.000000)">
            <g id="FAQ" transform="translate(108.000000, 797.000000)">
                <g id="1" transform="translate(0.000000, 64.000000)">
                    <g id="ic-question" transform="translate(0.000000, 0.928571)">
                        <rect id="container" x="0" y="0.0109988109" width="40" height="40"></rect>
                        <g id="Group-163" stroke="#FFFFFF" stroke-width="1.5" stroke-linejoin="round">
                            <polyline id="Stroke-8236" stroke-linecap="round" points="34.1666667 16.6666667 34.1666667 4.16666667 27.5 4.16666667"></polyline>
                            <polyline id="Stroke-8237" stroke-linecap="round" points="7.5 4.16666667 0.833333333 4.16666667 0.833333333 30.8333333 15.8333333 30.8333333"></polyline>
                            <polygon id="Stroke-8238" stroke-linecap="round" points="7.5 7.5 12.5 7.5 12.5 0.833333333 7.5 0.833333333"></polygon>
                            <polygon id="Stroke-8239" stroke-linecap="round" points="22.5 7.5 27.5 7.5 27.5 0.833333333 22.5 0.833333333"></polygon>
                            <path d="M12.5,4 L22.5,4" id="Stroke-8240" stroke-linecap="round"></path>
                            <path d="M0.833333333,12 L34.1666667,12" id="Stroke-8241" stroke-linecap="round"></path>
                            <path d="M39.1666667,29.1666667 C39.1666667,34.6883333 34.69,39.1666667 29.1666667,39.1666667 C23.6433333,39.1666667 19.1666667,34.6883333 19.1666667,29.1666667 C19.1666667,23.645 23.6433333,19.1666667 29.1666667,19.1666667 C34.69,19.1666667 39.1666667,23.645 39.1666667,29.1666667 L39.1666667,29.1666667 Z" id="Stroke-8242"></path>
                            <polyline id="Stroke-8243" stroke-linecap="round" points="33.3333333 30.8333333 29.1666667 30.8333333 29.1666667 25"></polyline>
                        </g>
                    </g>
                </g>
            </g>
        </g>
    </g>
</svg>