<svg width="17" height="20" viewBox="0 0 17 20" xmlns="http://www.w3.org/2000/svg"><g fill-rule="evenodd"><path d="M14.497 17.257c-.675-.052-.611-.677.026-.795 1.057-.195 1.522-.761 1.522-1.285 0-.441-.33-.852-.915-.984-.697-.158-.553-.631.026-.677.943-.075 1.406-.637 1.406-1.175 0-.471-.354-.923-1.05-1.017-.715-.096-.482-.611.026-.768.434-.133 1.128-.417 1.128-1.258 0-.56-.417-1.302-1.893-1.242-1.023.042-3.056-.165-4.149-.738C11.38 4.271 11.198 0 9.218 0 7.89 0 7.638 1.506 7.24 2.89 5.808 7.866 2.943 8.777 0 9.228V17.5c5.573 0 7.083 2.5 11.254 2.5 2.666 0 4.043-1.446 4.043-2.222 0-.278-.227-.476-.8-.521z"/></g></svg>