<?xml version="1.0" encoding="UTF-8"?>
<svg width="17px" height="20px" viewBox="0 0 17 20" version="1.1" xmlns="http://www.w3.org/2000/svg" xmlns:xlink="http://www.w3.org/1999/xlink">
    <!-- Generator: Sketch 44.1 (41455) - http://www.bohemiancoding.com/sketch -->
    <title>Shape</title>
    <desc>Created with Sketch.</desc>
    <defs>
        <path d="M659.496667,121.256667 C658.821667,121.205 658.885833,120.58 659.5225,120.4625 C660.58,120.2675 661.045,119.700833 661.045,119.176667 C661.045,118.735833 660.715,118.325 660.13,118.1925 C659.4325,118.035 659.576667,117.561667 660.155833,117.515833 C661.099167,117.440833 661.5625,116.879167 661.5625,116.340833 C661.5625,115.87 661.208333,115.4175 660.511667,115.324167 C659.7975,115.228333 660.03,114.7125 660.5375,114.555833 C660.971667,114.4225 661.665833,114.139167 661.665833,113.2975 C661.665833,112.7375 661.249167,111.995833 659.773333,112.055833 C658.75,112.0975 656.7175,111.890833 655.624167,111.318333 C656.38,108.270833 656.198333,104 654.218333,104 C652.89,104 652.638333,105.505833 652.239167,106.890833 C650.8075,111.865 647.9425,112.775833 645,113.226667 L645,121.5 C650.573333,121.5 652.083333,124 656.254167,124 C658.92,124 660.2975,122.554167 660.2975,121.778333 C660.296667,121.5 660.07,121.301667 659.496667,121.256667 L659.496667,121.256667 Z" id="path-1"></path>
    </defs>
    <g id="Page-1" stroke-width="1" fill-rule="evenodd">
        <g id="Reviews-1600+" transform="translate(-838.000000, -1400.000000)">
            <g id="Review-1" transform="translate(193.000000, 1296.000000)">
                <g id="Shape">
                    <use fill-opacity="0" fill-rule="evenodd" xlink:href="#path-1"></use>
                    <path stroke-width="1" d="M645.5,113.651269 L645.5,121.005678 C647.651835,121.0559 649.185452,121.442268 651.335389,122.284445 C651.455556,122.331517 651.585411,122.382759 651.830818,122.479674 C652.029442,122.55798 652.173458,122.614222 652.315152,122.668557 C653.839206,123.252983 654.891696,123.5 656.254167,123.5 C657.377832,123.5 658.317192,123.224785 658.995342,122.765979 C659.507627,122.419389 659.7975,122.00417 659.797502,121.77983 C659.797557,121.798268 659.771126,121.779746 659.457543,121.755134 L659.458507,121.755208 C658.899195,121.712397 658.486619,121.358672 658.518711,120.852626 C658.547175,120.40378 658.927778,120.063815 659.43183,119.97079 C660.184324,119.832032 660.545,119.495855 660.545,119.176667 C660.545,118.960998 660.363971,118.758158 660.01987,118.680221 C659.474399,118.55705 659.098158,118.222065 659.169542,117.739173 C659.232969,117.310107 659.634641,117.055516 660.116206,117.017406 C660.73726,116.968029 661.0625,116.665979 661.0625,116.340833 C661.0625,116.089359 660.857466,115.874961 660.445168,115.819725 C659.865153,115.741893 659.471683,115.384147 659.576278,114.864204 C659.650578,114.494863 659.982517,114.203876 660.390715,114.077865 C660.920874,113.915052 661.165833,113.707839 661.165833,113.2975 C661.165833,112.843036 660.784085,112.515154 659.793675,112.555419 C658.422307,112.611257 656.436118,112.307893 655.392226,111.761282 L655.044339,111.579118 L655.13887,111.197971 C655.950843,107.924117 655.481803,104.5 654.218333,104.5 C653.569554,104.5 653.290293,104.956223 652.861362,106.520037 C652.834958,106.61638 652.834958,106.61638 652.808224,106.713647 C652.774151,106.837334 652.746813,106.934917 652.71966,107.029129 C651.480032,111.336081 649.363227,112.973071 645.5,113.651269 Z"></path>
                </g>
            </g>
        </g>
    </g>
</svg>