<?xml version="1.0" encoding="UTF-8"?>
<svg width="276px" height="133px" viewBox="0 0 276 133" version="1.1" xmlns="http://www.w3.org/2000/svg" xmlns:xlink="http://www.w3.org/1999/xlink">
    <!-- Generator: Sketch 40.3 (33839) - http://www.bohemiancoding.com/sketch -->
    <title>Picture Copy</title>
    <desc>Created with Sketch.</desc>
    <defs></defs>
    <g id="Page-1" stroke="none" stroke-width="1" fill="none" fill-rule="evenodd">
        <g id="User-Review-&amp;-Ratings-1024+" transform="translate(-380.000000, -259.000000)">
            <g id="N4" transform="translate(380.000000, 259.000000)">
                <g id="Picture-Copy">
                    <g id="Group-9" transform="translate(132.000000, 0.000000)" fill-opacity="0.300000012" fill="#FFCA28" opacity="0.8">
                        <polygon id="Fill-7" points="17.504 13.4628 17.504 -0.0002 0.169 0.0178"></polygon>
                    </g>
                    <polygon id="Fill-10" fill-opacity="0.5" fill="#2196F3" opacity="0.6" points="53.1712 1 53.1712 16.797 63.3412 8.888"></polygon>
                    <polygon id="Fill-12" fill="#D84315" opacity="0.1" points="168.0993 8.1263 168.0993 30.4423 182.4663 19.2693"></polygon>
                    <polygon id="Fill-14" fill="#FADF9A" points="71.3085 18.7974 71.3085 34.5944 81.4785 26.6854"></polygon>
                    <polygon id="Fill-16" fill="#E1F2FC" points="126.0311 45.4392 126.0311 52.7632 130.7461 49.0962"></polygon>
                    <polygon id="Fill-18" fill="#E1F2FC" points="96.9702 30.3531 96.9702 42.6951 104.9162 36.5161"></polygon>
                    <polygon id="Fill-20" fill="#E1F2FC" points="185.5671 124.9392 185.5671 132.2632 190.2821 128.5962"></polygon>
                    <polygon id="Fill-22" fill="#EACBEC" opacity="0.6" points="81.4789 10.8987 81.4789 26.6957 91.6489 18.7867"></polygon>
                    <polygon id="Fill-24" fill="#BADDFB" points="115.891 121.9167 115.891 126.2447 118.677 124.0777"></polygon>
                    <polygon id="Fill-26" fill="#BADDFB" points="118.242 24.3609 118.242 32.4859 123.473 28.4179"></polygon>
                    <polygon id="Fill-28" fill="#BADDFB" points="243.0348 13.4628 243.0348 20.1938 247.3688 16.8238"></polygon>
                    <polygon id="Fill-30" fill="#A6E3B9" opacity="0.2" points="232.4359 34.463 232.4359 21 223.7689 27.74"></polygon>
                    <polygon id="Fill-32" fill-opacity="0.5" fill="#2196F3" opacity="0.8" points="208.3652 12.7581 208.3652 26.2211 217.0322 19.4811"></polygon>
                    <g id="Group-38" transform="translate(99.000000, 0.000000)" fill="#F4511E" opacity="0.3">
                        <polygon id="Fill-36" points="15.8834 0.0156 15.8834 11.8126 0.6934 -0.0004"></polygon>
                    </g>
                    <polygon id="Fill-39" fill="#CFF1D9" points="178.4661 37.2308 178.4661 22.2698 188.0981 29.7598"></polygon>
                    <polygon id="Fill-41" fill="#CAF1D5" points="120.8575 7.1731 120.8575 16.4521 114.8835 11.8071"></polygon>
                    <polygon id="Fill-43" fill="#F1DACC" points="6.8187 6.4145 6.8187 15.6935 0.8447 11.0485"></polygon>
                    <polygon id="Fill-45" fill="#EACBEC" points="149.2918 13.4628 149.2918 29.3248 139.0798 21.3828"></polygon>
                    <polygon id="Fill-47" fill-opacity="0.200000003" fill="#1AB844" points="58.2562 20.2635 58.2562 41.4875 44.5922 30.8615"></polygon>
                    <polygon id="Fill-49" fill="#1AB744" opacity="0.2" points="14.2211 57.3803 14.2211 71.6833 5.0131 64.5223"></polygon>
                    <polygon id="Fill-51" fill-opacity="0.400000006" fill="#FFB302" points="24.1568 32.9079 24.1568 12.3009 37.4238 22.6179"></polygon>
                    <polygon id="Fill-53" fill="#E1F2FC" points="24.1568 47.9871 24.1568 38.4681 30.2858 43.2341"></polygon>
                    <polygon id="Fill-55" fill="#E1F2FC" points="37.4236 22.632 37.4236 13.113 43.5526 17.879"></polygon>
                    <polygon id="Fill-57" fill="#E1F2FC" points="234.3674 -4.77484718e-12 234.3674 6 230.5044 2.996"></polygon>
                    <polygon id="Fill-59" fill="#A1D4F6" points="269.7734 4 269.7734 12.928 275.5214 8.458"></polygon>
                    <polygon id="Fill-61" fill="#E1F2FC" points="195.0984 45.4392 195.0984 36.5112 189.3504 40.9812"></polygon>
                    <polygon id="Fill-63" fill="#EACBEC" opacity="0.6" points="195.0984 18.0953 195.0984 4.1573 186.1254 11.1353"></polygon>
                    <polygon id="Fill-65" fill="#E1F2FC" points="232.0563 99.1555 232.0563 92.4565 227.7433 95.8105"></polygon>
                </g>
            </g>
        </g>
    </g>
</svg>
