<?xml version="1.0" encoding="UTF-8"?>
<svg width="289px" height="133px" viewBox="0 0 289 133" version="1.1" xmlns="http://www.w3.org/2000/svg" xmlns:xlink="http://www.w3.org/1999/xlink">
    <!-- Generator: Sketch 40.3 (33839) - http://www.bohemiancoding.com/sketch -->
    <title>Picture Copy</title>
    <desc>Created with Sketch.</desc>
    <defs></defs>
    <g id="Page-1" stroke="none" stroke-width="1" fill="none" fill-rule="evenodd">
        <g id="User-Review-&amp;-Ratings-1024+" transform="translate(-755.000000, -321.000000)">
            <g id="N4" transform="translate(380.000000, 259.000000)">
                <g id="Picture-Copy" transform="translate(519.500000, 128.500000) rotate(-180.000000) translate(-519.500000, -128.500000) translate(375.000000, 62.000000)">
                    <g id="Group-9" transform="translate(132.000000, -0.000000)" fill-opacity="0.300000012" fill="#FFCA28" opacity="0.8">
                        <polygon id="Fill-7" points="17.504 13.4628 17.504 -0.0002 0.169 0.0178"></polygon>
                    </g>
                    <polygon id="Fill-10" fill-opacity="0.5" fill="#2196F3" opacity="0.6" points="71.3085 3 71.3085 18.797 81.4785 10.888"></polygon>
                    <polygon id="Fill-12" fill="#D84315" opacity="0.2" points="168.0993 8.1263 168.0993 30.4423 182.4663 19.2693"></polygon>
                    <polygon id="Fill-14" fill="#FADF9A" points="71.3085 18.7974 71.3085 34.5944 81.4785 26.6854"></polygon>
                    <polygon id="Fill-16" fill="#E1F2FC" points="126.0311 45.4392 126.0311 52.7632 130.7461 49.0962"></polygon>
                    <polygon id="Fill-18" fill="#CFF1D9" points="96.9702 30.3531 96.9702 42.6951 104.9162 36.5161"></polygon>
                    <polygon id="Fill-20" fill="#CAF1D5" points="185.5671 124.9392 185.5671 132.2632 190.2821 128.5962"></polygon>
                    <polygon id="Fill-22" fill="#EACBEC" opacity="0.6" points="83.4789 7.8987 83.4789 23.6957 93.6489 15.7867"></polygon>
                    <polygon id="Fill-26" fill="#BADDFB" points="118.242 24.3609 118.242 32.4859 123.473 28.4179"></polygon>
                    <polygon id="Fill-28" fill="#BADDFB" points="243.0348 13.4628 243.0348 20.1938 247.3688 16.8238"></polygon>
                    <polygon id="Fill-30" fill="#A6E3B9" opacity="0.2" points="232.4359 34.463 232.4359 21 223.7689 27.74"></polygon>
                    <polygon id="Fill-32" fill-opacity="0.5" fill="#2196F3" opacity="0.8" points="208.3652 12.7581 208.3652 26.2211 217.0322 19.4811"></polygon>
                    <g id="Group-38" transform="translate(99.000000, -0.000000)" fill="#E1F2FC">
                        <polygon id="Fill-36" points="15.8834 0.0156 15.8834 11.8126 0.6934 -0.0004"></polygon>
                    </g>
                    <polygon id="Fill-39" fill="#E1F2FC" points="178.4661 37.2308 178.4661 22.2698 188.0981 29.7598"></polygon>
                    <polygon id="Fill-41" fill="#E1F2FC" points="120.8575 7.1731 120.8575 16.4521 114.8835 11.8071"></polygon>
                    <polygon id="Fill-43" fill="#EACBEC" points="6.8187 6.4145 6.8187 15.6935 0.8447 11.0485"></polygon>
                    <polygon id="Fill-43-Copy" fill="#F1DACC" points="16.974 30 16.974 39.279 11 34.634"></polygon>
                    <polygon id="Fill-45" fill="#EACBEC" points="149.2918 13.4628 149.2918 29.3248 139.0798 21.3828"></polygon>
                    <polygon id="Fill-47" fill-opacity="0.200000003" fill="#1AB844" points="59.2562 16.2635 59.2562 37.4875 45.5922 26.8615"></polygon>
                    <polygon id="Fill-49" fill="#A6E3B9" opacity="0.5" points="14.2211 57.3803 14.2211 71.6833 5.0131 64.5223"></polygon>
                    <polygon id="Fill-51" fill-opacity="0.400000006" fill="#FFB302" points="24.1568 23.9079 24.1568 3.3009 37.4238 13.6179"></polygon>
                    <polygon id="Fill-53" fill="#E1F2FC" points="24.1568 47.9871 24.1568 38.4681 30.2858 43.2341"></polygon>
                    <polygon id="Fill-55" fill="#F1DED1" points="43 18.519 43 9 49.129 13.766"></polygon>
                    <polygon id="Fill-57" fill="#E1F2FC" points="234.3674 -2.27657893e-11 234.3674 6 230.5044 2.996"></polygon>
                    <polygon id="Fill-59" fill="#FAE196" opacity="0.5" points="283.0348 9.6571 283.0348 18.5851 288.7828 14.1151"></polygon>
                    <polygon id="Fill-61" fill="#FFB302" opacity="0.5" points="195.0984 45.4392 195.0984 36.5112 189.3504 40.9812"></polygon>
                    <polygon id="Fill-63" fill="#1AB844" opacity="0.2" points="195.0984 18.0953 195.0984 4.1573 186.1254 11.1353"></polygon>
                    <polygon id="Fill-65" fill="#E1F2FC" points="232.0563 99.1555 232.0563 92.4565 227.7433 95.8105"></polygon>
                </g>
            </g>
        </g>
    </g>
</svg>