<svg width="191" height="150" viewBox="0 0 191 150" xmlns="http://www.w3.org/2000/svg" xmlns:xlink="http://www.w3.org/1999/xlink"><title>Picture</title><defs><path id="a" d="M135.178.148H.07v116.725h135.108V.148z"/></defs><g fill="none" fill-rule="evenodd"><g transform="translate(28.726 .23)"><mask id="b" fill="#fff"><use xlink:href="#a"/></mask><path d="M135.113 62.226c.64-11.212-3.52-18.73-10.711-23.441a14.617 14.617 0 0 0 1.75-6.956c0-8.118-6.589-14.698-14.717-14.698-3.64 0-6.968 1.322-9.537 3.508a44.819 44.819 0 0 0-15.417-2.716c-1.071 0-2.133.04-3.185.113C80.588 7.742 71.208.148 60.05.148c-10.58 0-19.556 6.83-22.767 16.313-6.716 1.145-11.965 6.57-12.837 13.367a9.705 9.705 0 0 0-3.608-.693c-5.367 0-9.719 4.346-9.719 9.707a9.65 9.65 0 0 0 1.697 5.48C5.07 50.266.07 59.608.07 70.121c0 8.708 3.434 16.61 9.014 22.449-.291 1.36-.448 2.77-.448 4.216 0 11.093 9.004 20.086 20.111 20.086 10.576 0 19.24-8.156 20.044-18.512a32.655 32.655 0 0 0 5.762-4.178c8.133 8.232 19.433 13.336 31.928 13.336 2.078 0 4.123-.145 6.126-.418 3.336 5.772 9.574 9.659 16.726 9.659 10.662 0 19.305-8.632 19.305-19.28 0-4.311-1.418-8.291-3.812-11.502 5.158-5.9 9.734-14.076 10.287-23.752" fill="#BADDFB" mask="url(#b)"/></g><path d="M127.933 130.528a3.05 3.05 0 0 1-1.713-.503l-22.368-15.118c-.522-.278-1.145-.664-1.863-1.11-1.904-1.18-4.51-2.796-6.09-2.796-.234 0-.426.039-.572.115l-23.676 12.431a8.592 8.592 0 0 1-4.028 1.01c-2.552 0-4.974-1.135-6.645-3.115-1.654-1.96-2.323-4.447-1.883-7.006l4.098-26.596a6.756 6.756 0 0 0-1.882-5.935L37.456 66.003a.769.769 0 0 1-.063-.046c-.923-.732-1.866-2.174-1.118-4.884 1.374-4.982 8.326-12.342 13.552-13.042l23.537-3.416a6.76 6.76 0 0 0 5.091-3.695l10.89-22.038c1.716-3.471 5.7-5.895 9.689-5.895 3.06 0 5.531 1.45 6.78 3.978l11.839 23.955a6.76 6.76 0 0 0 5.091 3.695l27.332 3.923c4.62.793 6.38 3.092 7.047 4.882 1.483 3.975-.614 9.71-5.905 16.147a.944.944 0 0 1-.34.261l-14.789 6.702c-1.445 1.484-2.08 3.67-1.7 5.884l4.82 30.136c.723 4.68-2.212 10.613-5.245 14.147-1.228 1.43-3.645 3.831-6.03 3.831" fill="#CDD6D9"/><path d="M99.035 12.042v1.89-1.89c-4.337 0-8.67 2.641-10.537 6.422L77.607 40.502a5.815 5.815 0 0 1-4.38 3.178l-23.539 3.416c-2.569.349-5.733 2.214-8.685 5.118-2.806 2.762-4.915 5.98-5.64 8.608-.932 3.377.503 5.13 1.442 5.874.04.033.083.063.126.092l23.774 15.85a5.803 5.803 0 0 1 1.558 5.026l-.005.032-4.098 26.598c-.482 2.831.262 5.585 2.095 7.757 1.852 2.193 4.537 3.45 7.368 3.45a9.529 9.529 0 0 0 4.469-1.118l23.673-12.43v.001c.008 0 .052-.008.134-.008 1.31 0 3.99 1.662 5.591 2.654.712.442 1.333.827 1.873 1.117l22.319 15.086c.677.448 1.43.67 2.251.67 2.626 0 5.12-2.263 6.749-4.16 1.722-2.008 3.224-4.486 4.228-6.98 1.162-2.888 1.589-5.628 1.234-7.922l-4.819-30.135-.003-.022c-.319-1.854.176-3.676 1.327-4.94l14.62-6.626c.263-.12.496-.298.68-.522 5.514-6.707 7.666-12.772 6.06-17.076-.753-2.022-2.71-4.614-7.746-5.479a2.896 2.896 0 0 0-.052-.008l-27.334-3.923a5.814 5.814 0 0 1-4.376-3.178l-11.839-23.955c-1.414-2.863-4.194-4.505-7.627-4.505m-.001 1.89c2.465 0 4.749 1.056 5.932 3.45l11.839 23.956a7.707 7.707 0 0 0 5.803 4.212l27.334 3.923c9.332 1.603 8.343 10.008.545 19.495l-14.946 6.773c-1.816 1.769-2.512 4.336-2.083 6.833l4.816 30.125c1.035 6.682-6.164 16.885-10.34 16.885-.435 0-.836-.11-1.192-.346l-22.402-15.142c-1.951-1.025-5.952-4.039-8.44-4.04-.377 0-.717.07-1.012.224L71.21 122.71a7.685 7.685 0 0 1-3.588.902c-4.492 0-8.45-4.041-7.596-9.017l4.1-26.612a7.692 7.692 0 0 0-2.216-6.815L37.98 65.217c-4.275-3.39 5.767-15.418 11.971-16.25L73.5 45.55a7.708 7.708 0 0 0 5.804-4.212L90.194 19.3c1.644-3.327 5.416-5.368 8.84-5.368" fill="#1665BF"/><path d="M101.694 14.394c-1.169 1.481-3.968 4.866-5.176 6.282a7.535 7.535 0 0 1 3.638 3.931c1.186-1.495 4.04-5.004 5.156-6.525-.825-1.89-1.871-2.979-3.618-3.688M106.118 19.713c-1.288 1.61-4.336 5.375-5.545 6.791 1.583.793.64-.644 1.37 1.158 1.185-1.494 3.706-4.675 5-6.273-.442-.895-.315-.643-.825-1.676M155.623 52.56c-1.226 1.656-4.26 5.711-5.415 7.171 1.612.733.615-.668 1.412 1.106 1.129-1.538 3.567-4.862 4.8-6.508-.199-.702-.422-1.22-.797-1.769M149.996 49.482c-1.168 1.481-3.95 5.006-5.159 6.422a7.534 7.534 0 0 1 3.64 3.93c1.185-1.494 5.156-6.759 6.271-8.28-1.707-1.555-4.088-1.945-4.752-2.072M45.108 51.2c-1.963 1.451-3.245 2.755-4.66 4.41 1.722.413 1.611.203 2.732 1.792 2.844-3.303 4.658-5.228 7.537-8.546-2.264.24-3.684.992-5.609 2.345" fill="#E1F2FC"/><path d="M132.18 81.63s14.566 14.642 24.943 12.6c5.873-1.156 6.742-17.084 19.125-17.236" stroke="#1665BF" stroke-width="4.534" stroke-linecap="round" stroke-linejoin="round"/><path d="M176.104 80.957a3.873 3.873 0 0 1-1.388-7.62 3.873 3.873 0 0 1 1.388 7.62" fill="#1665BF"/><path d="M176.104 80.957a3.873 3.873 0 0 1-1.388-7.62 3.873 3.873 0 0 1 1.388 7.62zM171.386 75.376c-.214 1.287.491-5.963 7.386-9.593M175.266 74.42s6.812-.438 11.46-2.402M175.918 77.998s7.238.333 11.904-1.058M173.915 80.718s7.49 3.212 14.03 1.111M58.765 81.63s-14.566 14.642-24.942 12.6c-5.873-1.156-6.743-17.084-19.125-17.236" stroke="#1665BF" stroke-width="4.534" stroke-linecap="round" stroke-linejoin="round"/><path d="M14.841 80.957a3.873 3.873 0 0 0 1.388-7.62 3.873 3.873 0 0 0-1.388 7.62" fill="#1665BF"/><path d="M14.841 80.957a3.873 3.873 0 0 0 1.388-7.62 3.873 3.873 0 0 0-1.388 7.62zM19.559 75.376c.214 1.287-.491-5.963-7.385-9.593M15.68 74.42s-6.812-.438-11.461-2.402M15.027 77.998s-7.238.333-11.903-1.058M17.03 80.718S9.541 83.93 3 81.83" stroke="#1665BF" stroke-width="4.534" stroke-linecap="round" stroke-linejoin="round"/><path d="M134.49 144.249c0-3.095-17.48-5.604-39.044-5.604-21.563 0-39.043 2.509-39.043 5.604 0 3.094 17.48 5.603 39.043 5.603s39.044-2.509 39.044-5.603" fill="#E1F2FC"/><path d="M125.282 131.571a8.588 8.588 0 0 1-4.029-1.01L97.577 118.13a6.8 6.8 0 0 0-3.148-.776c-1.091 0-2.18.268-3.146.776L67.606 130.56a8.588 8.588 0 0 1-4.028 1.01c-2.552 0-4.974-1.136-6.645-3.115-1.654-1.96-2.323-4.448-1.884-7.006l4.522-26.33a6.747 6.747 0 0 0-1.945-5.978L38.472 70.495a8.583 8.583 0 0 1-2.19-8.86 8.597 8.597 0 0 1 6.986-5.882l26.471-3.842a6.761 6.761 0 0 0 5.092-3.695l11.832-23.955a8.604 8.604 0 0 1 7.763-4.818 8.605 8.605 0 0 1 7.764 4.818l11.838 23.955a6.761 6.761 0 0 0 5.092 3.695l26.471 3.842a8.597 8.597 0 0 1 6.986 5.882 8.582 8.582 0 0 1-2.19 8.86l-19.154 18.647a6.748 6.748 0 0 0-1.945 5.978l4.522 26.33c.439 2.558-.23 5.046-1.884 7.005-1.671 1.98-4.093 3.116-6.644 3.116" fill="#FFF"/><path d="M94.426 18.498a9.544 9.544 0 0 0-8.611 5.345L73.983 47.799a5.815 5.815 0 0 1-4.38 3.177l-26.471 3.842a9.537 9.537 0 0 0-7.75 6.525 9.52 9.52 0 0 0 2.43 9.828l19.154 18.647a5.803 5.803 0 0 1 1.673 5.142l-4.522 26.33c-.487 2.838.256 5.599 2.093 7.774 1.851 2.194 4.537 3.452 7.368 3.452a9.524 9.524 0 0 0 4.468-1.119l23.677-12.431a5.845 5.845 0 0 1 2.706-.668c.94 0 1.876.231 2.707.668l23.677 12.431a9.524 9.524 0 0 0 4.468 1.119c2.831 0 5.517-1.258 7.368-3.452 1.837-2.175 2.58-4.936 2.093-7.774l-4.522-26.33a5.805 5.805 0 0 1 1.673-5.142l19.154-18.647a9.519 9.519 0 0 0 2.43-9.828 9.537 9.537 0 0 0-7.75-6.525l-26.47-3.842a5.814 5.814 0 0 1-4.38-3.178l-11.839-23.955a9.544 9.544 0 0 0-8.612-5.345m0 1.89c2.751 0 5.502 1.43 6.916 4.29l11.838 23.957a7.707 7.707 0 0 0 5.804 4.21l26.471 3.842c6.323.918 8.847 8.678 4.272 13.132l-19.154 18.646a7.693 7.693 0 0 0-2.217 6.815l4.521 26.33c.855 4.975-3.104 9.016-7.596 9.016a7.685 7.685 0 0 1-3.588-.9l-23.676-12.432a7.71 7.71 0 0 0-7.174 0l-23.677 12.431a7.685 7.685 0 0 1-3.588.901c-4.492 0-8.451-4.04-7.596-9.016l4.521-26.33a7.691 7.691 0 0 0-2.217-6.815L39.132 69.82c-4.575-4.454-2.05-12.214 4.272-13.132l26.471-3.841a7.708 7.708 0 0 0 5.804-4.211l11.832-23.956c1.414-2.861 4.165-4.292 6.915-4.292" fill="#1665BF"/><path d="M149.727 69.819c3.501-3.409 2.841-8.75-.493-11.482.861 2.617.354 5.683-1.941 7.917L128.138 84.9a7.693 7.693 0 0 0-2.217 6.815l4.522 26.33c1.08 6.288-5.53 11.084-11.185 8.115L95.582 113.73a7.717 7.717 0 0 0-7.174 0L64.73 126.16c-2.994 1.572-6.255.967-8.5-.883 1.378 4.277 6.454 6.8 10.935 4.448l23.677-12.431a7.718 7.718 0 0 1 7.174 0l23.676 12.431c5.655 2.97 12.265-1.826 11.184-8.115l-4.521-26.33a7.691 7.691 0 0 1 2.216-6.814l19.155-18.647z" fill="#E1F2FC"/><path d="M74.452 84.197a5.734 5.734 0 0 1-5.738 5.73 5.734 5.734 0 0 1-5.738-5.73 5.734 5.734 0 0 1 5.738-5.73 5.734 5.734 0 0 1 5.738 5.73M125.883 84.197a5.734 5.734 0 0 1-5.738 5.73 5.734 5.734 0 0 1-5.737-5.73 5.734 5.734 0 0 1 5.737-5.73 5.734 5.734 0 0 1 5.738 5.73" fill="#FECCBB"/><path d="M108.47 71.443c0 6.935-5.63 12.556-12.573 12.556-6.944 0-12.572-5.621-12.572-12.556 0-6.935 5.628-12.556 12.572-12.556 6.943 0 12.573 5.621 12.573 12.556" fill="#E1F2FC"/><path d="M94.384 80.85c-6.52 0-11.823-5.296-11.823-11.807 0-6.51 5.304-11.807 11.823-11.807s11.822 5.297 11.822 11.807c0 6.51-5.303 11.807-11.822 11.807" fill="#FFF"/><path d="M94.384 56.291c-7.04 0-12.769 5.72-12.769 12.752 0 7.032 5.728 12.752 12.769 12.752 7.04 0 12.768-5.72 12.768-12.752 0-7.031-5.728-12.752-12.768-12.752m0 1.89c6.007 0 10.877 4.863 10.877 10.862 0 6-4.87 10.863-10.877 10.863-6.007 0-10.877-4.863-10.877-10.863 0-5.999 4.87-10.862 10.877-10.862" fill="#1665BF"/><path d="M94.597 66.16c0-.377.086-.732.235-1.052a3.965 3.965 0 0 0-4.416 3.936 3.965 3.965 0 0 0 3.968 3.962 3.965 3.965 0 0 0 3.967-3.963c0-.234-.024-.462-.063-.685a2.5 2.5 0 0 1-3.69-2.199" fill="#1665BF"/><path d="M102.359 61.66c.487 1.233.758 2.576.758 3.983 0 6-4.87 10.862-10.877 10.862-3.151 0-5.988-1.34-7.975-3.478a10.878 10.878 0 0 0 10.119 6.879c6.007 0 10.876-4.863 10.876-10.863 0-2.852-1.101-5.445-2.901-7.384" fill="#EBEEF0"/><path d="M71.088 69.287a.893.893 0 1 1 .002 1.787.893.893 0 0 1-.002-1.787M74.301 72.375a1.285 1.285 0 1 1 .001 2.57 1.285 1.285 0 0 1-.001-2.57M68.978 73.248a.754.754 0 0 1 1.262.822.754.754 0 0 1-1.262-.822M67.398 70.64a.486.486 0 1 1-.437.867.486.486 0 0 1 .437-.868M117.534 69.287a.893.893 0 1 0 0 1.787.893.893 0 0 0 0-1.787M114.322 72.375a1.285 1.285 0 1 0-.002 2.57 1.285 1.285 0 0 0 .002-2.57M119.644 73.248a.754.754 0 0 0-1.261.822.754.754 0 0 0 1.261-.822M121.225 70.64a.486.486 0 1 0 .437.867.486.486 0 0 0-.437-.868" fill="#1665BF"/><path d="M71.46 98.89c7.994.157 14.98.275 22.89.275 14.518 0 19.815-2.062 23.131-4.638" stroke="#1665BF" stroke-width="1.889" stroke-linecap="round" stroke-linejoin="round"/><path d="M83.686 102.2h16.339c7.898 0 15.44-3.232 15.44-3.232s-5.45 4.242-14.447 4.448c-6.59.15-17.332-1.215-17.332-1.215" fill="#EBEEF0"/></g></svg>