<?xml version="1.0" encoding="UTF-8" standalone="no"?>
<svg xmlns="http://www.w3.org/2000/svg" height="150px" width="208px" version="1.1" xmlns:xlink="http://www.w3.org/1999/xlink" viewBox="0 0 208 150"><!-- Generator: Sketch 46 (44423) - http://www.bohemiancoding.com/sketch -->
 <title>Picture</title>
 <desc>Created with Sketch.</desc>
 <defs>
  <polygon id="path-1" points="137.09 0.00073171 0.032527 0.00073171 0.032527 121.24 137.09 121.24"/>
  <polygon id="path-3" points="60.715 33.423 60.715 0.074575 0.021592 0.074575 0.021592 33.423"/>
  <polygon id="path-5" points="0.02678 12.073 82.471 12.073 82.471 0.20052 0.02678 0.20052"/>
 </defs>
 <g id="Page-1" fill-rule="evenodd" fill="none">
  <g id="Comments-Empty-Locale" transform="translate(-332 -1156)">
   <g id="Picture" transform="translate(332 1156)">
    <g id="Group-3" transform="translate(36.22 .36512)">
     <mask id="mask-2" fill="white">
      <use xlink:href="#path-1"/>
     </mask>
     <path id="Fill-1" fill="#B9DDFA" mask="url(#mask-2)" d="m136.6 53.218c1.91-6.598-1.89-13.495-8.49-15.404-0.74-0.216-1.49-0.356-2.24-0.429-0.4-12.728-8.88-24.307-21.78-28.038-4.734-1.372-9.533-1.5216-14.066-0.6494-1.364-3.825-4.481-6.9629-8.679-8.1783-5.46-1.5801-11.112 0.5605-14.25 4.9255-1.693-0.994-3.534-1.7964-5.505-2.3671-11.726-3.394-23.935 2.5544-28.685 13.454-4.806-1.063-9.675 1.777-11.063 6.572-0.254 0.878-0.372 1.762-0.371 2.631-9.244 1.399-17.294 8.002-20.065 17.572-2.2589 7.805-0.4966 15.821 4.0649 21.833-2.3016 1.611-4.0899 3.987-4.9321 6.896-1.9588 6.768 1.9394 13.842 8.7066 15.8 0.8456 0.245 1.6956 0.399 2.5396 0.466 1.22 10.941 8.854 20.598 20.086 23.848 7.979 2.31 16.151 0.92 22.681-3.17 2.486 5.36 7.182 9.65 13.296 11.42 8.055 2.33 16.372-0.34 21.623-6.19 19.829 3.7 39.599-8.19 45.329-27.962 2.71-9.371 1.8-18.931-1.89-27.191 1.7-1.507 3.01-3.495 3.69-5.839"/>
    </g>
    <path id="Fill-4" fill="#CCD6D9" d="m68.094 128.86c-2.36 0-4.812-0.17-7.288-0.5-0.407-0.05-0.728-0.37-0.785-0.78s0.164-0.8 0.541-0.96c0.192-0.09 18.93-8.41 21.159-23.28-16.399-8.079-26.556-23.009-26.556-39.102 0-12.381 4.662-23.738 13.127-31.979 8.893-8.657 21.067-13.234 35.208-13.234 39.03 0 59.45 22.559 59.45 44.842 0 27.055-22.39 45.953-54.44 45.953h-1.39c-2.33 0-3.77-0.02-6.68-0.29-2.635 9.73-14.373 19.33-32.346 19.33"/>
    <path id="Fill-6" fill="#1665BF" d="m103.5 18.111c-7.272 0-14.096 1.212-20.287 3.604-5.941 2.295-11.176 5.622-15.559 9.889-8.644 8.414-13.404 20.004-13.404 32.634 0 8.365 2.659 16.558 7.689 23.691 4.61 6.539 11.08 12.026 18.768 15.931-2.595 13.98-20.325 21.84-20.509 21.92-0.754 0.32-1.197 1.11-1.083 1.93 0.114 0.81 0.757 1.45 1.572 1.56 2.515 0.33 5.007 0.5 7.407 0.5 8.899 0 16.898-2.3 23.132-6.66 4.854-3.4 8.38-7.92 9.874-12.6 2.32 0.2 3.72 0.22 6.02 0.22h0.64 0.75c8.06 0 15.62-1.16 22.48-3.46 6.69-2.24 12.58-5.51 17.51-9.711 4.91-4.192 8.73-9.2 11.35-14.884 2.67-5.782 4.02-12.11 4.02-18.808 0-5.845-1.33-11.549-3.96-16.955-2.7-5.532-6.62-10.468-11.65-14.671-11.08-9.244-26.56-14.13-44.76-14.13m0 1.829c38.17 0 58.54 21.905 58.54 43.927 0 26.088-21.43 45.033-53.53 45.033h-1.39c-2.61 0-4.04-0.02-7.38-0.36-1.973 8.98-12.977 19.4-31.646 19.4-2.275 0-4.667-0.15-7.167-0.49 0 0 19.928-8.65 21.787-24.64-15.902-7.607-26.635-22.029-26.635-38.572 0-24.465 18.462-44.298 47.421-44.298"/>
    <path id="Fill-8" fill="#E1F1FB" d="m147.64 56.531l12.62-3.865c-0.47-1.432-1.02-2.846-1.66-4.237l-12.29 3.763 1.33 4.339z"/>
    <path id="Fill-10" fill="#E1F1FB" d="m149.1 59.593l12.04-3.691c-0.17-0.784-0.38-1.564-0.61-2.34l-12.14 3.721 0.71 2.31z"/>
    <path id="Fill-12" fill="#1665BF" d="m169.83 35.823c-0.37 0-0.71-0.221-0.85-0.584-0.19-0.47 0.05-1.001 0.52-1.183l4.12-1.603c0.47-0.183 1 0.051 1.18 0.522 0.19 0.471-0.05 1-0.52 1.183l-4.12 1.603c-0.11 0.042-0.22 0.062-0.33 0.062"/>
    <path id="Fill-14" fill="#1665BF" d="m167.56 31.784c-0.26 0-0.52-0.113-0.71-0.33-0.32-0.389-0.26-0.966 0.12-1.288l6.14-5.094c0.39-0.322 0.96-0.269 1.29 0.12 0.32 0.388 0.26 0.965-0.12 1.287l-6.14 5.094c-0.17 0.142-0.38 0.211-0.58 0.211"/>
    <path id="Fill-16" fill="#1665BF" d="m163.62 28.606c-0.16 0-0.33-0.046-0.49-0.143-0.42-0.271-0.55-0.835-0.28-1.262l2.04-3.21c0.27-0.426 0.83-0.552 1.26-0.282 0.43 0.271 0.55 0.836 0.28 1.263l-2.03 3.209c-0.18 0.274-0.47 0.425-0.78 0.425"/>
    <path id="Fill-18" fill="#1665BF" d="m56.941 80.402c-3.86 3.885-15.552 13.638-23.201 12.131-1.342-0.265-2.791-2.865-4.193-5.379-1.943-3.487-4.383-7.863-8.612-10.278-0.005-0.05-0.004-0.101-0.01-0.151 0.055-0.116 0.102-0.237 0.137-0.364 0.086-0.314 0.074-0.72-0.001-1.169 0.009 0.035 0.017 0.071 0.024 0.106l-0.006-0.032c-0.009-0.056-0.021-0.112-0.034-0.167-0.316-1.727-1.492-4.011-1.508-4.04-1.613-3.044-4.053-5.49-7.056-7.073-1.072-0.565-2.4-0.154-2.9652 0.919-0.5652 1.072-0.1544 2.4 0.9182 2.965 1.814 0.957 3.127 2.211 4.07 3.45-0.932 0.052-1.84 0.313-2.663 0.782-2.2473-0.325-5.2253-0.905-7.5602-1.892-1.1162-0.471-2.4044 0.05-2.8767 1.167-0.47194 1.116 0.0501 2.404 1.1671 2.877 1.8549 0.784 3.9918 1.342 5.9586 1.734-1.8907-0.132-3.9307-0.391-5.5811-0.884-1.1604-0.346-2.3846 0.313-2.7314 1.475-0.34721 1.162 0.31352 2.385 1.4747 2.731 2.4139 0.722 5.3861 1.02 7.8556 1.134 0.015 0.026 0.0326 0.051 0.048 0.077-2.0967 0.264-4.4909 0.259-6.7277-0.46-1.155-0.371-2.3909 0.263-2.7618 1.417-0.37138 1.155 0.26374 2.391 1.4176 2.762 1.8652 0.6 3.7793 0.825 5.6016 0.825 4.8147 0 8.9897-1.57 9.9197-1.945 0.06-0.023 0.118-0.049 0.177-0.074 0.002 0 0.004-0.001 0.005-0.002 0.001 0 0.001 0 0.002-0.001 0.382-0.162 0.751-0.361 1.1-0.603 0.492-0.34 0.923-0.744 1.288-1.197 2.658 1.885 4.396 4.999 6.096 8.048 1.974 3.544 3.84 6.891 7.178 7.549 0.813 0.161 1.657 0.24 2.532 0.24 4.453 0 9.706-2.072 15.66-6.182 5.094-3.517 8.816-7.245 8.972-7.402 0.854-0.86 0.85-2.249-0.01-3.104s-2.25-0.85-3.104 0.01"/>
    <g id="Group-22" transform="translate(146.71 63.658)">
     <mask id="mask-4" fill="white">
      <use xlink:href="#path-3"/>
     </mask>
     <path id="Fill-20" fill="#1665BF" mask="url(#mask-4)" d="m60.609 17.821c-0.372-1.154-1.608-1.789-2.762-1.418-2.227 0.716-4.624 0.718-6.727 0.453 0.014-0.023 0.03-0.046 0.044-0.069 2.47-0.115 5.444-0.413 7.858-1.134 1.162-0.347 1.822-1.57 1.475-2.732s-1.57-1.822-2.731-1.475c-1.651 0.493-3.691 0.752-5.582 0.884 1.967-0.392 4.104-0.95 5.959-1.734 1.117-0.472 1.639-1.7606 1.167-2.8768-0.473-1.1169-1.76-1.6386-2.877-1.1671-2.329 0.9849-5.311 1.5648-7.561 1.8904-0.822-0.4675-1.729-0.7288-2.662-0.78 0.944-1.2391 2.256-2.494 4.07-3.4504 1.073-0.5652 1.484-1.8929 0.918-2.9652-0.565-1.0727-1.893-1.4843-2.965-0.91829-3.003 1.5831-5.443 4.0288-7.056 7.0731-0.015 0.0292-1.207 2.3425-1.514 4.0733-0.013 0.055-0.024 0.11-0.034 0.166 0.007-0.036 0.015-0.072 0.025-0.107-0.075 0.449-0.088 0.856-0.002 1.169 0.036 0.13 0.084 0.253 0.141 0.37-0.006 0.048-0.006 0.096-0.01 0.144-4.231 2.413-6.672 6.791-8.616 10.28-1.401 2.514-2.85 5.114-4.193 5.378-7.632 1.506-19.334-8.246-23.2-12.131-0.8551-0.86-2.245-0.864-3.1044-0.01-0.8601 0.854-0.86449 2.244-0.01022 3.104 0.15585 0.157 3.878 3.885 8.9725 7.403 5.9531 4.11 11.206 6.182 15.66 6.182 0.875 0 1.719-0.08 2.532-0.241 3.338-0.658 5.203-4.005 7.178-7.548 1.7-3.051 3.438-6.164 6.096-8.049 0.365 0.453 0.795 0.857 1.287 1.198 0.349 0.241 0.719 0.44 1.101 0.603h0.001c0.001 0.001 0.003 0.001 0.004 0.002 0.06 0.025 0.119 0.051 0.18 0.074 0.932 0.377 5.104 1.945 9.918 1.945 1.822 0 3.737-0.225 5.602-0.824 1.154-0.371 1.789-1.608 1.418-2.762"/>
    </g>
    <g id="Group-25" transform="translate(63.659 137.93)">
     <mask id="mask-6" fill="white">
      <use xlink:href="#path-5"/>
     </mask>
     <path id="Fill-23" fill="#E1F1FB" mask="url(#mask-6)" d="m82.471 6.1369c0 3.2784-18.456 5.9361-41.222 5.9361s-41.222-2.6577-41.222-5.9361c-0.00022-3.2784 18.456-5.9364 41.222-5.9364 22.766 0.00002 41.222 2.658 41.222 5.9364"/>
    </g>
    <path id="Fill-26" fill="#fff" d="m62.711 128.41c-0.604 0-1.219-0.01-1.828-0.04-0.405-0.02-0.749-0.3-0.845-0.7-0.096-0.39 0.079-0.8 0.429-1.01 0.143-0.08 14.143-8.39 16.245-23.31-16.401-8.088-26.558-23.018-26.558-39.112 0-24.93 23.929-45.213 53.346-45.213 29.41 0 53.34 20.283 53.34 45.213 0 24.931-23.93 45.212-53.34 45.212-3.3 0-6.605-0.26-9.83-0.77-2.882 8.45-14.017 19.73-30.959 19.73"/>
    <path id="Fill-28" fill="#1665BF" d="m103.5 18.111c-14.439 0-28.024 4.761-38.257 13.406-10.32 8.721-16.004 20.341-16.004 32.721 0 8.365 2.658 16.558 7.688 23.691 4.613 6.542 11.087 12.031 18.78 15.941-2.346 14.1-15.561 21.92-15.699 22-0.701 0.41-1.05 1.23-0.859 2.02 0.192 0.79 0.88 1.35 1.69 1.39 0.624 0.03 1.253 0.05 1.872 0.05 16.915 0 28.211-11 31.561-19.63 3.035 0.44 6.128 0.67 9.228 0.67 14.43 0 28.02-4.77 38.25-13.411 10.32-8.72 16-20.341 16-32.721s-5.68-24-16-32.721c-10.23-8.645-23.82-13.406-38.25-13.406m0 1.829c28.95 0 52.43 19.833 52.43 44.298 0 24.466-23.48 44.302-52.43 44.302-3.586 0-7.084-0.31-10.464-0.89-2.377 8.3-13.499 19.85-30.325 19.85-0.588 0-1.183-0.02-1.784-0.05 0 0 14.917-8.65 16.775-24.64-15.901-7.607-26.634-22.029-26.634-38.572 0-24.465 23.473-44.298 52.432-44.298"/>
    <path id="Fill-30" fill="#E1F1FB" d="m105.07 25.046c17.24 0 32.84 8.207 41.54 19.116-8.16-12.608-25.03-20.972-43.85-20.972-26.984 0-48.861 17.696-48.861 39.525 0 7.888 1.806 16.304 6.728 22.472-3.551-5.477-4.811-13.821-4.802-20.435 0.032-22.697 22.255-39.706 49.245-39.706"/>
    <path id="Fill-32" fill="#E1F1FB" d="m56.274 83.491c4.347 7.729 11.985 14.879 21.429 19.319 0.064-0.48 0.153-1.1 0.228-1.59-8.422-4.025-16.962-10.574-21.657-17.729"/>
    <path id="Fill-34" fill="#E1F1FB" d="m149.44 42.884c3.3 5.798 4.95 12.296 4.95 19.159 0 24.466-23.28 44.297-52.23 44.297-3.587 0-8.051-0.62-11.432-1.2-2.439 8.63-11.312 18.87-26.577 20.05-1.904 1.5-3.224 2.26-3.224 2.26 17.822 0.86 29.649-11.21 32.109-19.8 3.38 0.58 6.878 0.89 10.464 0.89 28.95 0 52.43-19.836 52.43-44.302 0-7.743-2.36-15.021-6.49-21.354"/>
    <path id="Fill-36" fill="#FDCBBB" d="m72.47 72.835c0 3.065-2.484 5.549-5.549 5.549s-5.549-2.484-5.549-5.549c0-3.064 2.484-5.548 5.549-5.548s5.549 2.484 5.549 5.548"/>
    <path id="Fill-38" fill="#FDCBBB" d="m145.62 72.835c0 3.065-2.48 5.549-5.55 5.549-3.06 0-5.55-2.484-5.55-5.549 0-3.064 2.49-5.548 5.55-5.548 3.07 0 5.55 2.484 5.55 5.548"/>
    <path id="Fill-40" fill="#1665BF" d="m76.639 59.13c0.541 0 0.979 0.439 0.979 0.98 0 0.54-0.438 0.979-0.979 0.979s-0.98-0.439-0.98-0.979c0-0.541 0.439-0.98 0.98-0.98"/>
    <path id="Fill-42" fill="#1665BF" d="m80.159 62.517c0.778 0 1.409 0.631 1.409 1.41 0 0.778-0.631 1.409-1.409 1.409-0.779 0-1.41-0.631-1.41-1.409 0-0.779 0.631-1.41 1.41-1.41"/>
    <path id="Fill-44" fill="#1665BF" d="m74.327 63.476c0.249-0.382 0.76-0.49 1.142-0.241s0.489 0.761 0.24 1.143c-0.249 0.381-0.76 0.489-1.142 0.24s-0.489-0.761-0.24-1.142"/>
    <path id="Fill-46" fill="#1665BF" d="m72.595 60.613c0.263 0.133 0.369 0.454 0.236 0.717-0.133 0.262-0.454 0.368-0.717 0.235-0.262-0.133-0.368-0.453-0.235-0.716s0.453-0.368 0.716-0.236"/>
    <path id="Fill-48" fill="#1665BF" d="m129.99 59.13c-0.54 0-0.98 0.439-0.98 0.98 0 0.54 0.44 0.979 0.98 0.979s0.98-0.439 0.98-0.979c0-0.541-0.44-0.98-0.98-0.98"/>
    <path id="Fill-50" fill="#1665BF" d="m126.47 62.517c-0.78 0-1.41 0.631-1.41 1.41 0 0.778 0.63 1.409 1.41 1.409s1.41-0.631 1.41-1.409c0-0.779-0.63-1.41-1.41-1.41"/>
    <path id="Fill-52" fill="#1665BF" d="m132.3 63.476c-0.25-0.382-0.76-0.49-1.14-0.241s-0.49 0.761-0.24 1.143c0.25 0.381 0.76 0.489 1.14 0.24s0.49-0.761 0.24-1.142"/>
    <path id="Fill-54" fill="#1665BF" d="m134.03 60.613c-0.26 0.133-0.37 0.454-0.23 0.717 0.13 0.262 0.45 0.368 0.71 0.235 0.27-0.133 0.37-0.453 0.24-0.716s-0.45-0.368-0.72-0.236"/>
    <path id="Fill-56" fill="#E1F1FB" d="m119.93 60.452c0 9.074-7.36 16.43-16.43 16.43-9.077 0-16.434-7.356-16.434-16.43s7.357-16.43 16.434-16.43c9.07 0 16.43 7.356 16.43 16.43"/>
    <path id="Fill-58" fill="#fff" d="m101.52 72.441c-8.343 0-15.13-6.787-15.13-15.129s6.787-15.129 15.13-15.129c8.34 0 15.13 6.787 15.13 15.129s-6.79 15.129-15.13 15.129"/>
    <path id="Fill-60" fill="#1665BF" d="m101.52 41.268c-8.847 0-16.044 7.197-16.044 16.044 0 8.846 7.197 16.043 16.044 16.043 8.85 0 16.04-7.197 16.04-16.043 0-8.847-7.19-16.044-16.04-16.044m0 1.829c7.85 0 14.21 6.364 14.21 14.215 0 7.85-6.36 14.214-14.21 14.214-7.851 0-14.215-6.364-14.215-14.214 0-7.851 6.364-14.215 14.215-14.215"/>
    <path id="Fill-62" fill="#1665BF" d="m101.8 53.539c0-0.493 0.11-0.958 0.31-1.377-0.2-0.021-0.39-0.035-0.59-0.035-2.865 0-5.186 2.321-5.186 5.185 0 2.863 2.321 5.184 5.186 5.184 2.86 0 5.18-2.321 5.18-5.184 0-0.306-0.03-0.605-0.08-0.896-0.46 0.249-0.99 0.392-1.55 0.392-1.81 0-3.27-1.464-3.27-3.269"/>
    <path id="Fill-64" fill="#EBEDEF" d="m111.94 47.65c0.64 1.614 0.99 3.371 0.99 5.212 0 7.85-6.36 14.214-14.213 14.214-4.118 0-7.826-1.753-10.422-4.552 2.08 5.271 7.214 9.002 13.225 9.002 7.85 0 14.21-6.364 14.21-14.214 0-3.732-1.44-7.126-3.79-9.662"/>
    <path id="Fill-66" fill="#1665BF" d="m126.57 83.091c-0.21-0.463-0.74-0.676-1.21-0.475-0.46 0.201-0.67 0.739-0.47 1.202 0.01 0.036 0.03 0.086 0.06 0.142-2.9 2.14-7.7 4.061-21.49 4.061-7.734 0-14.634-0.12-21.58-0.257 0.025-0.44-0.268-0.846-0.712-0.944-0.493-0.11-0.981 0.2-1.091 0.693-0.1 0.45-0.189 1.185-0.163 1.717 0.023 0.49 0.427 0.871 0.912 0.871 0.015 0 0.03 0 0.045-0.001 0.344-0.016 0.63-0.223 0.773-0.511 7.023 0.138 13.991 0.261 21.816 0.261 13.37 0 18.71-1.824 21.92-3.963 0.16 0.263 0.44 0.443 0.77 0.449h0.02c0.5 0 0.91-0.399 0.91-0.899 0.02-1.107-0.38-2.039-0.51-2.346"/>
    <path id="Fill-68" fill="#EBEDEF" d="m93.142 91.875h15.798c7.64 0 14.93-3.13 14.93-3.13s-5.27 4.107-13.97 4.306c-6.37 0.146-16.758-1.176-16.758-1.176"/>
   </g>
  </g>
 </g>
</svg>
